<?xml version="1.0" standalone="no"?><!DOCTYPE svg PUBLIC "-//W3C//DTD SVG 1.1//EN" "http://www.w3.org/Graphics/SVG/1.1/DTD/svg11.dtd"><svg t="1675521727123" class="icon" viewBox="0 0 1031 1024" version="1.1" xmlns="http://www.w3.org/2000/svg" p-id="2307" xmlns:xlink="http://www.w3.org/1999/xlink" width="201.3671875" height="200"><path d="M413.946239 1015.816411a70.094977 70.094977 0 0 1-70.094977-70.094977v-253.98915h-69.972311a14.018995 14.018995 0 0 1-14.018996-14.018996 14.018995 14.018995 0 0 1 0.262856-2.698656 14.018995 14.018995 0 0 1 4.030462-8.761873l359.850089-362.250842a19.819355 19.819355 0 0 1 18.680312-5.852931 21.028493 21.028493 0 0 1 10.794626 6.168358l358.781142 361.199418a14.176709 14.176709 0 0 1 3.084179 15.245658 14.018995 14.018995 0 0 1-13.738616 10.969864h-69.884692V945.721434a70.094977 70.094977 0 0 1-70.094977 70.094977z" fill="#5C97FF" opacity=".2" p-id="2308"></path><path d="M140.190305 490.121605h-122.66621a17.523744 17.523744 0 0 1-17.523745-17.523744 16.7527 16.7527 0 0 1 0.350475-3.504749 17.523744 17.523744 0 0 1 5.046839-10.689484l450.500419-450.500419a25.812475 25.812475 0 0 1 18.189647-7.903209 21.203731 21.203731 0 0 1 5.257123 0.648379 26.548473 26.548473 0 0 1 13.423188 7.657876l449.203662 449.203662a17.523744 17.523744 0 0 1 3.855224 18.995739 17.523744 17.523744 0 0 1-17.085651 13.598425H806.09259v-17.523744h17.523744v-17.523744h66.327372l-415.803405-415.820929L58.319372 455.056593H122.666561v17.523744h17.523744v17.523744z" fill="#5C97FF" p-id="2309"></path><path d="M578.283913 946.282194h-403.046119a70.094977 70.094977 0 0 1-70.094978-70.094977V805.531479h35.047489v70.655738a35.047489 35.047489 0 0 0 35.047489 35.047488h403.046119v35.047489zM140.190305 665.341525h-35.047489v-192.200428h35.047489V665.341525z m700.949773-87.075486h-35.047488v-105.142466h35.047488v105.142466z" fill="#5C97FF" p-id="2310"></path><path d="M122.666561 472.580337m-17.523745 0a17.523744 17.523744 0 1 0 35.047489 0 17.523744 17.523744 0 1 0-35.047489 0Z" fill="#5C97FF" p-id="2311"></path><path d="M823.616334 472.580337m-17.523744 0a17.523744 17.523744 0 1 0 35.047488 0 17.523744 17.523744 0 1 0-35.047488 0Z" fill="#5C97FF" p-id="2312"></path><path d="M280.38026 630.854796m17.523744 0l0 0q17.523744 0 17.523744 17.523744l0 175.237444q0 17.523744-17.523744 17.523744l0 0q-17.523744 0-17.523744-17.523744l0-175.237444q0-17.523744 17.523744-17.523744Z" fill="#FFB266" p-id="2313"></path><path d="M385.522726 665.902285m17.523744 0l0 0q17.523744 0 17.523744 17.523744l0 140.189955q0 17.523744-17.523744 17.523744l0 0q-17.523744 0-17.523744-17.523744l0-140.189955q0-17.523744 17.523744-17.523744Z" fill="#FFB266" p-id="2314"></path><path d="M490.665192 700.949773m17.523744 0l0 0q17.523744 0 17.523744 17.523745l0 105.142466q0 17.523744-17.523744 17.523744l0 0q-17.523744 0-17.523744-17.523744l0-105.142466q0-17.523744 17.523744-17.523745Z" fill="#5C97FF" p-id="2315"></path><path d="M105.142816 700.949773m17.523745 0l0 0q17.523744 0 17.523744 17.523745l0 35.047488q0 17.523744-17.523744 17.523745l0 0q-17.523744 0-17.523745-17.523745l0-35.047488q0-17.523744 17.523745-17.523745Z" fill="#5C97FF" p-id="2316"></path><path d="M122.666561 665.902285m-17.523745 0a17.523744 17.523744 0 1 0 35.047489 0 17.523744 17.523744 0 1 0-35.047489 0Z" fill="#5C97FF" p-id="2317"></path><path d="M578.283913 928.75845m-17.523744 0a17.523744 17.523744 0 1 0 35.047489 0 17.523744 17.523744 0 1 0-35.047489 0Z" fill="#5C97FF" p-id="2318"></path><path d="M823.616334 578.283563m-17.523744 0a17.523744 17.523744 0 1 0 35.047488 0 17.523744 17.523744 0 1 0-35.047488 0Z" fill="#5C97FF" p-id="2319"></path><path d="M122.666561 806.092239m-17.523745 0a17.523744 17.523744 0 1 0 35.047489 0 17.523744 17.523744 0 1 0-35.047489 0Z" fill="#5C97FF" p-id="2320"></path><path d="M907.695259 924.868178l-62.735004-62.735004a140.40024 140.40024 0 0 1-185.085788-11.600719 140.330145 140.330145 0 0 1 0-198.263644 140.347668 140.347668 0 0 1 198.263643 0 140.417763 140.417763 0 0 1 11.618243 185.103312l62.735005 62.717481a17.523744 17.523744 0 0 1 0 24.778574 17.523744 17.523744 0 0 1-24.796099 0z m-223.042218-99.131821a105.247608 105.247608 0 0 0 148.706495 0 105.265132 105.265132 0 0 0 0-148.688971 105.265132 105.265132 0 0 0-148.706495 0 105.265132 105.265132 0 0 0 0 148.688971z" fill="#5C97FF" p-id="2321"></path></svg>