<?xml version="1.0" standalone="no"?><!DOCTYPE svg PUBLIC "-//W3C//DTD SVG 1.1//EN" "http://www.w3.org/Graphics/SVG/1.1/DTD/svg11.dtd"><svg t="1675521638233" class="icon" viewBox="0 0 1024 1024" version="1.1" xmlns="http://www.w3.org/2000/svg" p-id="2763" xmlns:xlink="http://www.w3.org/1999/xlink" width="200" height="200"><path d="M417.28106 1024a70.659674 70.659674 0 0 1-70.659674-70.659674v-256.03533h-70.53602a14.131935 14.131935 0 0 1-14.131935-14.131935 14.131935 14.131935 0 0 1 0.264974-2.720397 14.131935 14.131935 0 0 1 4.062931-8.83246l362.749103-365.169197a19.979023 19.979023 0 0 1 18.830803-5.900082 21.197902 21.197902 0 0 1 10.88159 6.218051l361.671543 364.109302a14.290919 14.290919 0 0 1 3.109026 15.368479 14.131935 14.131935 0 0 1-13.849297 11.058239h-70.447695V953.340326a70.659674 70.659674 0 0 1-70.659674 70.659674z" fill="#5C97FF" opacity=".2" p-id="2764"></path><path d="M141.319702 494.070108h-123.65443a17.664919 17.664919 0 0 1-17.664919-17.664919 16.887662 16.887662 0 0 1 0.353299-3.532984 17.664919 17.664919 0 0 1 5.087496-10.7756l454.129727-454.129727a26.020425 26.020425 0 0 1 18.336185-7.966878 21.374551 21.374551 0 0 1 5.299476 0.653602 26.762352 26.762352 0 0 1 13.531328 7.719569l452.822522 452.822523a17.664919 17.664919 0 0 1 3.886283 19.148772 17.664919 17.664919 0 0 1-17.223296 13.707977H812.586608v-17.664919h17.664918v-17.664918h66.861717l-419.153188-419.170853L58.789202 458.722606H123.654783v17.664918h17.664919v17.664919z" fill="#5C97FF" p-id="2765"></path><path d="M582.942666 953.905603h-406.293127a70.659674 70.659674 0 0 1-70.659674-70.659674V812.020977h35.329837v71.224952a35.329837 35.329837 0 0 0 35.329837 35.329837h406.293127v35.329837zM141.319702 670.701628h-35.329837v-193.748826h35.329837V670.701628z m706.596743-87.77698h-35.329837v-105.989511h35.329837v105.989511z" fill="#5C97FF" p-id="2766"></path><path d="M123.654783 476.387524m-17.664918 0a17.664919 17.664919 0 1 0 35.329837 0 17.664919 17.664919 0 1 0-35.329837 0Z" fill="#5C97FF" p-id="2767"></path><path d="M830.251526 476.387524m-17.664918 0a17.664919 17.664919 0 1 0 35.329837 0 17.664919 17.664919 0 1 0-35.329837 0Z" fill="#5C97FF" p-id="2768"></path><path d="M105.989865 706.596743m17.664918 0l0 0q17.664919 0 17.664919 17.664919l0 35.329837q0 17.664919-17.664919 17.664918l0 0q-17.664919 0-17.664918-17.664918l0-35.329837q0-17.664919 17.664918-17.664919Z" fill="#5C97FF" p-id="2769"></path><path d="M247.309213 812.586254m17.664919 0l35.329837 0q17.664919 0 17.664919 17.664919l0 35.329837q0 17.664919-17.664919 17.664919l-35.329837 0q-17.664919 0-17.664919-17.664919l0-35.329837q0-17.664919 17.664919-17.664919Z" fill="#5C97FF" p-id="2770"></path><path d="M247.309213 706.596743m17.664919 0l35.329837 0q17.664919 0 17.664919 17.664919l0 35.329837q0 17.664919-17.664919 17.664918l-35.329837 0q-17.664919 0-17.664919-17.664918l0-35.329837q0-17.664919 17.664919-17.664919Z" fill="#FFB266" p-id="2771"></path><path d="M353.298725 706.596743m17.664918 0l35.329838 0q17.664919 0 17.664918 17.664919l0 35.329837q0 17.664919-17.664918 17.664918l-35.329838 0q-17.664919 0-17.664918-17.664918l0-35.329837q0-17.664919 17.664918-17.664919Z" fill="#FFB266" p-id="2772"></path><path d="M353.298725 812.586254m17.664918 0l35.329838 0q17.664919 0 17.664918 17.664919l0 35.329837q0 17.664919-17.664918 17.664919l-35.329838 0q-17.664919 0-17.664918-17.664919l0-35.329837q0-17.664919 17.664918-17.664919Z" fill="#5C97FF" p-id="2773"></path><path d="M123.654783 671.266906m-17.664918 0a17.664919 17.664919 0 1 0 35.329837 0 17.664919 17.664919 0 1 0-35.329837 0Z" fill="#5C97FF" p-id="2774"></path><path d="M582.942666 936.240685m-17.664918 0a17.664919 17.664919 0 1 0 35.329837 0 17.664919 17.664919 0 1 0-35.329837 0Z" fill="#5C97FF" p-id="2775"></path><path d="M759.591852 936.240685m-17.664919 0a17.664919 17.664919 0 1 0 35.329838 0 17.664919 17.664919 0 1 0-35.329838 0Z" fill="#5C97FF" p-id="2776"></path><path d="M900.911201 936.240685m-17.664919 0a17.664919 17.664919 0 1 0 35.329837 0 17.664919 17.664919 0 1 0-35.329837 0Z" fill="#5C97FF" p-id="2777"></path><path d="M812.586608 724.261662m-17.664919 0a17.664919 17.664919 0 1 0 35.329837 0 17.664919 17.664919 0 1 0-35.329837 0Z" fill="#5C97FF" p-id="2778"></path><path d="M830.251526 582.942313m-17.664918 0a17.664919 17.664919 0 1 0 35.329837 0 17.664919 17.664919 0 1 0-35.329837 0Z" fill="#5C97FF" p-id="2779"></path><path d="M123.654783 812.586254m-17.664918 0a17.664919 17.664919 0 1 0 35.329837 0 17.664919 17.664919 0 1 0-35.329837 0Z" fill="#5C97FF" p-id="2780"></path><path d="M918.576119 918.575766h-176.649186a35.329837 35.329837 0 0 1-35.329837-35.329837v-35.329837h35.329837v17.664918a17.664919 17.664919 0 0 0 17.664919 17.664919h141.319349a17.664919 17.664919 0 0 0 17.664918-17.664919v-105.989511a17.664919 17.664919 0 0 0-17.664918-17.664919h-88.324593v-35.329837h105.989511a35.329837 35.329837 0 0 1 35.329837 35.329837v141.319349a35.329837 35.329837 0 0 1-35.329837 35.329837z" fill="#5C97FF" p-id="2781"></path><path d="M706.597096 668.988131a18.618824 18.618824 0 0 1 17.664919 19.431411l17.664918 155.451283a18.618824 18.618824 0 0 1-17.664918 19.431411 18.618824 18.618824 0 0 1-17.664919-19.431411l-17.664918-155.451283a18.618824 18.618824 0 0 1 17.664918-19.431411z" fill="#5C97FF" p-id="2782"></path><path d="M632.386773 667.733922m17.664919 0l52.994756 0q17.664919 0 17.664918 17.664919l0 0q0 17.664919-17.664918 17.664918l-52.994756 0q-17.664919 0-17.664919-17.664918l0 0q0-17.664919 17.664919-17.664919Z" fill="#5C97FF" p-id="2783"></path></svg>