<?xml version="1.0" standalone="no"?><!DOCTYPE svg PUBLIC "-//W3C//DTD SVG 1.1//EN" "http://www.w3.org/Graphics/SVG/1.1/DTD/svg11.dtd"><svg t="1675521766166" class="icon" viewBox="0 0 1024 1024" version="1.1" xmlns="http://www.w3.org/2000/svg" p-id="2491" xmlns:xlink="http://www.w3.org/1999/xlink" width="200" height="200"><path d="M417.28106 1024a70.659674 70.659674 0 0 1-70.659674-70.659674v-256.03533h-70.53602a14.131935 14.131935 0 0 1-14.131935-14.131935 14.131935 14.131935 0 0 1 0.264974-2.720397 14.131935 14.131935 0 0 1 4.062931-8.83246l362.749103-365.169197a19.979023 19.979023 0 0 1 18.830803-5.900082 21.197902 21.197902 0 0 1 10.88159 6.218051l361.671543 364.109302a14.290919 14.290919 0 0 1 3.109026 15.368479 14.131935 14.131935 0 0 1-13.849297 11.058239h-70.447695V953.340326a70.659674 70.659674 0 0 1-70.659674 70.659674z" fill="#5C97FF" opacity=".2" p-id="2492"></path><path d="M141.319702 494.070108h-123.65443a17.664919 17.664919 0 0 1-17.664919-17.664919 16.887662 16.887662 0 0 1 0.353299-3.532984 17.664919 17.664919 0 0 1 5.087496-10.7756l454.129727-454.129727a26.020425 26.020425 0 0 1 18.336185-7.966878 21.374551 21.374551 0 0 1 5.299476 0.653602 26.762352 26.762352 0 0 1 13.531328 7.719569l452.822522 452.822523a17.664919 17.664919 0 0 1 3.886283 19.148772 17.664919 17.664919 0 0 1-17.223296 13.707977H812.586608v-17.664919h17.664918v-17.664918h66.861717l-419.153188-419.170853L58.789202 458.722606H123.654783v17.664918h17.664919v17.664919z" fill="#5C97FF" p-id="2493"></path><path d="M777.256771 953.905603h-600.607232a70.659674 70.659674 0 0 1-70.659674-70.659674V812.020977h35.329837v71.224952a35.329837 35.329837 0 0 0 35.329837 35.329837h105.989512V953.340326h388.628208v-34.76456h105.989512a35.329837 35.329837 0 0 0 35.329837-35.329837v-406.293127h35.329837v406.293127a70.659674 70.659674 0 0 1-70.659674 70.659674zM141.319702 670.701628h-35.329837v-193.748826h35.329837V670.701628z" fill="#5C97FF" p-id="2494"></path><path d="M123.654783 476.387524m-17.664918 0a17.664919 17.664919 0 1 0 35.329837 0 17.664919 17.664919 0 1 0-35.329837 0Z" fill="#5C97FF" p-id="2495"></path><path d="M830.251526 476.387524m-17.664918 0a17.664919 17.664919 0 1 0 35.329837 0 17.664919 17.664919 0 1 0-35.329837 0Z" fill="#5C97FF" p-id="2496"></path><path d="M317.968888 918.575766m17.664918 0l282.638697 0q17.664919 0 17.664919 17.664919l0 0q0 17.664919-17.664919 17.664918l-282.638697 0q-17.664919 0-17.664918-17.664918l0 0q0-17.664919 17.664918-17.664919Z" fill="#5C97FF" p-id="2497"></path><path d="M211.979376 459.287883m17.664919 0l70.659674 0q17.664919 0 17.664919 17.664919l0 0q0 17.664919-17.664919 17.664918l-70.659674 0q-17.664919 0-17.664919-17.664918l0 0q0-17.664919 17.664919-17.664919Z" fill="#5C97FF" p-id="2498"></path><path d="M635.937422 459.287883m17.664919 0l70.659674 0q17.664919 0 17.664918 17.664919l0 0q0 17.664919-17.664918 17.664918l-70.659674 0q-17.664919 0-17.664919-17.664918l0 0q0-17.664919 17.664919-17.664919Z" fill="#5C97FF" p-id="2499"></path><path d="M335.633806 812.586254m17.664919 0l35.329837 0q17.664919 0 17.664919 17.664919l0 35.329837q0 17.664919-17.664919 17.664919l-35.329837 0q-17.664919 0-17.664919-17.664919l0-35.329837q0-17.664919 17.664919-17.664919Z" fill="#5C97FF" p-id="2500"></path><path d="M105.989865 706.596743m17.664918 0l0 0q17.664919 0 17.664919 17.664919l0 35.329837q0 17.664919-17.664919 17.664918l0 0q-17.664919 0-17.664918-17.664918l0-35.329837q0-17.664919 17.664918-17.664919Z" fill="#5C97FF" p-id="2501"></path><path d="M335.633806 706.596743m17.664919 0l35.329837 0q17.664919 0 17.664919 17.664919l0 35.329837q0 17.664919-17.664919 17.664918l-35.329837 0q-17.664919 0-17.664919-17.664918l0-35.329837q0-17.664919 17.664919-17.664919Z" fill="#FFB266" p-id="2502"></path><path d="M441.623318 812.586254m17.664918 0l35.329837 0q17.664919 0 17.664919 17.664919l0 35.329837q0 17.664919-17.664919 17.664919l-35.329837 0q-17.664919 0-17.664918-17.664919l0-35.329837q0-17.664919 17.664918-17.664919Z" fill="#5C97FF" p-id="2503"></path><path d="M441.623318 706.596743m17.664918 0l35.329837 0q17.664919 0 17.664919 17.664919l0 35.329837q0 17.664919-17.664919 17.664918l-35.329837 0q-17.664919 0-17.664918-17.664918l0-35.329837q0-17.664919 17.664918-17.664919Z" fill="#FFB266" p-id="2504"></path><path d="M547.612829 812.586254m17.664919 0l35.329837 0q17.664919 0 17.664918 17.664919l0 35.329837q0 17.664919-17.664918 17.664919l-35.329837 0q-17.664919 0-17.664919-17.664919l0-35.329837q0-17.664919 17.664919-17.664919Z" fill="#5C97FF" p-id="2505"></path><path d="M282.639051 936.240685m-17.664919 0a17.664919 17.664919 0 1 0 35.329837 0 17.664919 17.664919 0 1 0-35.329837 0Z" fill="#5C97FF" p-id="2506"></path><path d="M671.267259 936.240685m-17.664918 0a17.664919 17.664919 0 1 0 35.329837 0 17.664919 17.664919 0 1 0-35.329837 0Z" fill="#5C97FF" p-id="2507"></path><path d="M123.654783 671.266906m-17.664918 0a17.664919 17.664919 0 1 0 35.329837 0 17.664919 17.664919 0 1 0-35.329837 0Z" fill="#5C97FF" p-id="2508"></path><path d="M123.654783 812.586254m-17.664918 0a17.664919 17.664919 0 1 0 35.329837 0 17.664919 17.664919 0 1 0-35.329837 0Z" fill="#5C97FF" p-id="2509"></path></svg>