<?xml version="1.0" standalone="no"?><!DOCTYPE svg PUBLIC "-//W3C//DTD SVG 1.1//EN" "http://www.w3.org/Graphics/SVG/1.1/DTD/svg11.dtd"><svg t="1675521776810" class="icon" viewBox="0 0 1024 1024" version="1.1" xmlns="http://www.w3.org/2000/svg" p-id="2654" xmlns:xlink="http://www.w3.org/1999/xlink" width="200" height="200"><path d="M317.793103 1024m0-70.62069l0-459.034482q0-70.62069 70.62069-70.62069l564.965517 0q70.62069 0 70.62069 70.62069l0 459.034482q0 70.62069-70.62069 70.62069l-564.965517 0q-70.62069 0-70.62069-70.62069Z" fill="#5C97FF" opacity=".2" p-id="2655"></path><path d="M882.758621 847.448276h-88.275862a70.62069 70.62069 0 0 0-9.463173-35.310345h103.406345c18.891034 0 30.155034-9.622069 30.155035-25.758897v-478.155034a54.360276 54.360276 0 0 0-0.529656-7.909517v-44.137931a66.365793 66.365793 0 0 1 35.310345 57.767724v466.891034A68.855172 68.855172 0 0 1 882.758621 847.448276z m-229.517242 0h-300.137931a70.62069 70.62069 0 0 0-9.463172-35.310345h319.046621a70.62069 70.62069 0 0 0-9.463173 35.310345z m-441.37931 0h-141.241379a68.855172 68.855172 0 0 1-70.62069-66.683586v-184.461242l105.931034-282.482758 0.282483-0.582621C122.438621 279.287172 137.710345 247.172414 176.551724 247.172414h141.241379v35.310345h-154.65931c-6.550069 0-8.633379 5.296552-17.390345 27.436138a1472.088276 1472.088276 0 0 1-12.764689 31.426206l-98.215725 249.220414v195.831173c0 21.910069 9.728 25.758897 30.155035 25.758896h156.389517a70.62069 70.62069 0 0 0-9.463172 35.310345z" fill="#5C97FF" p-id="2656"></path><path d="M282.482759 953.37931a106.036966 106.036966 0 0 1-105.931035-105.931034 106.054621 106.054621 0 0 1 105.931035-105.931035 106.054621 106.054621 0 0 1 105.931034 105.931035 106.054621 106.054621 0 0 1-105.931034 105.931034z m0-176.551724a70.62069 70.62069 0 0 0-70.62069 70.62069 70.62069 70.62069 0 0 0 70.62069 70.62069 70.62069 70.62069 0 0 0 70.620689-70.62069 70.708966 70.708966 0 0 0-70.620689-70.62069z" fill="#5C97FF" p-id="2657"></path><path d="M723.862069 953.37931a106.036966 106.036966 0 0 1-105.931035-105.931034 106.054621 106.054621 0 0 1 105.931035-105.931035 106.054621 106.054621 0 0 1 105.931034 105.931035 106.054621 106.054621 0 0 1-105.931034 105.931034z m0-176.551724a70.62069 70.62069 0 0 0-70.62069 70.62069 70.62069 70.62069 0 0 0 70.62069 70.62069 70.62069 70.62069 0 0 0 70.62069-70.62069 70.708966 70.708966 0 0 0-70.62069-70.62069z" fill="#5C97FF" p-id="2658"></path><path d="M882.758621 564.965517h-529.655173a70.708966 70.708966 0 0 1-70.620689-70.620689v-423.724138a70.708966 70.708966 0 0 1 70.620689-70.62069h529.655173a70.708966 70.708966 0 0 1 70.620689 70.62069v35.310344h-35.310344v-35.310344a35.310345 35.310345 0 0 0-35.310345-35.310345h-529.655173a35.310345 35.310345 0 0 0-35.310345 35.310345v423.724138a35.310345 35.310345 0 0 0 35.310345 35.310344h529.655173a35.310345 35.310345 0 0 0 35.310345-35.310344v-247.172414h35.310344v247.172414a70.708966 70.708966 0 0 1-70.620689 70.620689z" fill="#5C97FF" p-id="2659"></path><path d="M158.896552 423.724138m17.655172 0l70.62069 0q17.655172 0 17.655172 17.655172l0 0q0 17.655172-17.655172 17.655173l-70.62069 0q-17.655172 0-17.655172-17.655173l0 0q0-17.655172 17.655172-17.655172Z" fill="#FFB266" p-id="2660"></path><path d="M918.068966 141.241379m17.655172 0l0 0q17.655172 0 17.655172 17.655173l0 35.310345q0 17.655172-17.655172 17.655172l0 0q-17.655172 0-17.655172-17.655172l0-35.310345q0-17.655172 17.655172-17.655173Z" fill="#5C97FF" p-id="2661"></path><path d="M935.724138 105.931034m-17.655172 0a17.655172 17.655172 0 1 0 35.310344 0 17.655172 17.655172 0 1 0-35.310344 0Z" fill="#5C97FF" p-id="2662"></path><path d="M935.724138 247.172414m-17.655172 0a17.655172 17.655172 0 1 0 35.310344 0 17.655172 17.655172 0 1 0-35.310344 0Z" fill="#5C97FF" p-id="2663"></path></svg>